<?xml version="1.0" standalone="no"?><!DOCTYPE svg PUBLIC "-//W3C//DTD SVG 1.1//EN" "http://www.w3.org/Graphics/SVG/1.1/DTD/svg11.dtd"><svg t="1747630093699" class="icon" viewBox="0 0 1024 1024" version="1.1" xmlns="http://www.w3.org/2000/svg" p-id="4460" xmlns:xlink="http://www.w3.org/1999/xlink" width="200" height="200"><path d="M736 505.6l-70.4-236.8C659.2 236.8 620.8 192 569.6 192H454.4c-57.6 0-89.6 44.8-96 76.8L288 505.6c-12.8 51.2 51.2 70.4 64 25.6l64-217.6h19.2l-102.4 384h96v288c0 51.2 76.8 51.2 76.8 0v-288h25.6v288c0 51.2 70.4 51.2 70.4 0v-288H704l-108.8-384h19.2l64 217.6c6.4 44.8 70.4 25.6 57.6-25.6zM512 172.8c44.8 0 83.2-38.4 83.2-83.2C595.2 38.4 556.8 0 512 0c-44.8 0-83.2 38.4-83.2 83.2S467.2 172.8 512 172.8z" p-id="4461" fill="#2c2c2c"></path></svg>