<?xml version="1.0" standalone="no"?><!DOCTYPE svg PUBLIC "-//W3C//DTD SVG 1.1//EN" "http://www.w3.org/Graphics/SVG/1.1/DTD/svg11.dtd"><svg t="1747630860343" class="icon" viewBox="0 0 1024 1024" version="1.1" xmlns="http://www.w3.org/2000/svg" p-id="13006" xmlns:xlink="http://www.w3.org/1999/xlink" width="200" height="200"><path d="M537.6 900.352s259.1744-82.4832 460.8 72.448v-72.448c-235.52-124.9792-460.8 0-460.8 0zM25.6 900.352V972.8c201.6256-154.9312 460.8-72.448 460.8-72.448s-225.28-124.9792-460.8 0z" fill="#2c2c2c" p-id="13007"></path><path d="M947.2 206.8992c-144.5888-66.9184-296.96-70.8096-435.2-11.7248-138.24-59.0848-290.6112-55.1936-435.2 11.7248C51.5072 419.5328 25.2928 632.1664 0 844.8c160.1536-64 330.3936-70.3488 486.4-19.0976 8.6016 2.816 17.1008 5.7856 25.6 8.96 8.4992-3.1744 16.9984-6.144 25.6-8.96 156.0064-51.2 326.2464-44.9024 486.4 19.0976-25.2928-212.6336-51.5072-425.2672-76.8-637.9008z m-460.8 565.248a735.0272 735.0272 0 0 0-214.4256-31.6928 771.5328 771.5328 0 0 0-211.5072 29.7984q14.2848-119.0912 28.7744-238.2848 17.5104-144.9984 34.9184-289.9968A495.616 495.616 0 0 1 310.3744 204.8 458.5984 458.5984 0 0 1 486.4 239.7696z m51.2 0v-532.48A458.5984 458.5984 0 0 1 713.6256 204.8a495.616 495.616 0 0 1 186.2144 37.3248q17.3056 144.9984 34.9184 289.9968 14.4384 119.0912 28.7744 238.2848a771.5328 771.5328 0 0 0-211.5072-29.7984 735.0272 735.0272 0 0 0-214.4256 31.5392z m326.3488-455.68a12.6976 12.6976 0 0 1-16.128 7.1168 353.28 353.28 0 0 0-247.7056 0 12.6976 12.6976 0 0 1-16.128-7.1168 12.8512 12.8512 0 0 1 7.424-16.9472 378.88 378.88 0 0 1 265.1136 0 12.8512 12.8512 0 0 1 7.424 16.9984z m3.328 70.5024a393.0112 393.0112 0 0 0-275.8656 0 12.8512 12.8512 0 0 0-7.424 16.9472 12.6976 12.6976 0 0 0 16.128 7.1168 367.616 367.616 0 0 1 258.4576 0 12.6976 12.6976 0 0 0 16.128-7.1168 12.8512 12.8512 0 0 0-7.424-16.896z m10.752 87.4496a406.8864 406.8864 0 0 0-286.72 0 12.9024 12.9024 0 0 0-7.3216 17.1008 12.8512 12.8512 0 0 0 16.1792 7.1168 381.184 381.184 0 0 1 269.1072 0 12.8512 12.8512 0 0 0 16.1792-7.1168 12.9024 12.9024 0 0 0-7.424-17.0496z m10.24 87.5008a419.84 419.84 0 0 0-296.96 0 12.8 12.8 0 0 0-7.424 16.896 12.8 12.8 0 0 0 16.1792 7.1168 394.752 394.752 0 0 1 279.3472 0 12.8 12.8 0 0 0 16.1792-7.1168 12.8 12.8 0 0 0-7.3216-16.8448z m10.24 87.4496a433.4592 433.4592 0 0 0-307.2 0 12.8 12.8 0 0 0-7.424 16.896 12.6976 12.6976 0 0 0 16.1792 7.0656 408.32 408.32 0 0 1 289.5872 0 12.6976 12.6976 0 0 0 16.1792-7.0656 12.8 12.8 0 0 0-7.3216-16.8448z m-752.64-174.9504a406.8864 406.8864 0 0 1 286.72 0A12.9024 12.9024 0 0 1 440.0128 491.52a12.8512 12.8512 0 0 1-16.1792 7.1168 381.184 381.184 0 0 0-269.1072 0A12.8512 12.8512 0 0 1 138.5472 491.52a12.9024 12.9024 0 0 1 7.424-17.0496z m-17.664 104.3968a12.8 12.8 0 0 0 16.1792 7.1168 394.752 394.752 0 0 1 279.3472 0 12.8 12.8 0 0 0 16.1792-7.1168 12.8 12.8 0 0 0-7.424-16.896 419.84 419.84 0 0 0-296.96 0 12.8 12.8 0 0 0-7.2192 16.9472z m-10.24 87.4496a12.6976 12.6976 0 0 0 16.1792 7.0656 408.32 408.32 0 0 1 289.5872 0 12.6976 12.6976 0 0 0 16.1792-7.0656 12.8 12.8 0 0 0-7.424-16.896 433.4592 433.4592 0 0 0-307.2 0 12.8 12.8 0 0 0-7.2192 16.9472z m314.624-279.2448A394.24 394.24 0 0 0 327.68 363.52v25.6a368.9472 368.9472 0 0 1 96.3584 22.016 12.6976 12.6976 0 0 0 16.128-7.1168 12.9024 12.9024 0 0 0-7.5776-16.9984z m0-87.4496A379.1872 379.1872 0 0 0 327.68 276.48v25.6a353.28 353.28 0 0 1 96.3584 21.2992 12.6976 12.6976 0 0 0 16.128-7.1168 12.8512 12.8512 0 0 0-7.5776-16.6912z m-193.792-18.944a376.064 376.064 0 0 0-71.3216 18.944 12.8512 12.8512 0 0 0-8.3456 11.7248L148.48 396.5952V399.36a12.7488 12.7488 0 0 0 17.1008 11.9808c6.144-2.304 12.3392-4.4544 18.5856-6.4a368.64 368.64 0 0 1 92.16-16.5888V276.48a367.7696 367.7696 0 0 0-37.5296 4.1472z" fill="#2c2c2c" p-id="13008"></path></svg>