<?xml version="1.0" standalone="no"?><!DOCTYPE svg PUBLIC "-//W3C//DTD SVG 1.1//EN" "http://www.w3.org/Graphics/SVG/1.1/DTD/svg11.dtd"><svg t="1747631357507" class="icon" viewBox="0 0 1024 1024" version="1.1" xmlns="http://www.w3.org/2000/svg" p-id="14096" xmlns:xlink="http://www.w3.org/1999/xlink" width="200" height="200"><path d="M514.73 752h-30.88a261 261 0 0 1-261-261v-69.17a86.39 86.39 0 0 1 86.29-86.29h349.42a86.39 86.39 0 0 1 86.29 86.29v100.06A230.12 230.12 0 0 1 514.73 752zM309.14 375.54a46.35 46.35 0 0 0-46.29 46.29V491a221 221 0 0 0 221 221h30.88c104.83 0 190.12-85.29 190.12-190.12V421.83a46.35 46.35 0 0 0-46.29-46.29z" fill="#333333" p-id="14097"></path><path d="M491.48 850c-81 0-157.74-7-216.2-19.76-28.78-6.27-52-13.69-69.15-22-22.39-10.93-34.57-23.67-37.25-39a45.16 45.16 0 0 1 7.49-34.63c13.24-18.7 41.17-30.72 90.56-39a20 20 0 0 1 6.6 39.45c-51 8.53-62.27 19.49-64.51 22.64a4.79 4.79 0 0 0-0.84 4c3 4.81 23.09 18.83 83.24 31C346.15 803.89 417.2 810 491.48 810c79.36 0 152.48-6.26 205.89-17.62 59.51-12.67 76.54-27.89 77.82-32.23 0.71-2.43 0.35-3 0-3.52-1.36-2.15-10.75-13.33-63-21.9a20 20 0 0 1 6.48-39.47c50.25 8.24 78.11 20.6 90.35 40.08 4.69 7.46 9.28 19.78 4.48 36.09-7.83 26.64-43.11 46.29-107.87 60.07-56.82 12.11-130.89 18.5-214.15 18.5zM208 761.41zM697.59 649.78a20 20 0 0 1-5.09-39.34c50.36-13.28 84.08-32.67 103.09-59.31 15.22-21.33 22-48.16 22-87 0-8-2.36-11.25-4.13-13-10.61-10.42-43.38-9.81-69.71-9.33-6.17 0.12-12.55 0.23-18.71 0.23a20 20 0 0 1 0-40c5.79 0 11.71-0.11 18-0.22 37.31-0.69 75.89-1.4 98.47 20.77 10.69 10.5 16.11 24.47 16.11 41.54 0 47.68-9.08 81.67-29.46 110.22-24.65 34.55-65.69 59-125.44 74.75a20.08 20.08 0 0 1-5.13 0.69zM373.39 311.32a20 20 0 0 1-14.15-34.14l18-18a5 5 0 0 0 0.18-6.91 48.5 48.5 0 0 1-0.24-65l16.11-18.06a20 20 0 1 1 29.85 26.63L407 213.92a8.58 8.58 0 0 0 0 11.5 45 45 0 0 1-1.54 62l-18 18a19.94 19.94 0 0 1-14.07 5.9zM474.27 311.32a20 20 0 0 1-14.14-34.14l18-18a5 5 0 0 0 0.17-6.91 48.51 48.51 0 0 1-0.23-65l16.11-18.06A20 20 0 1 1 524 195.86l-16.1 18.06a8.58 8.58 0 0 0 0 11.5 45 45 0 0 1-1.54 62l-18 18a19.94 19.94 0 0 1-14.09 5.9zM575.16 311.32A20 20 0 0 1 561 277.18l18-18a5 5 0 0 0 0.17-6.91 48.51 48.51 0 0 1-0.23-65l16.11-18.06a20 20 0 1 1 29.84 26.63l-16.11 18.06a8.6 8.6 0 0 0 0 11.5 45 45 0 0 1-1.54 62l-18 18a19.94 19.94 0 0 1-14.08 5.92z" fill="#333333" p-id="14098"></path></svg>