<?xml version="1.0" standalone="no"?><!DOCTYPE svg PUBLIC "-//W3C//DTD SVG 1.1//EN" "http://www.w3.org/Graphics/SVG/1.1/DTD/svg11.dtd"><svg t="1747631607605" class="icon" viewBox="0 0 1024 1024" version="1.1" xmlns="http://www.w3.org/2000/svg" p-id="16138" xmlns:xlink="http://www.w3.org/1999/xlink" width="200" height="200"><path d="M785.396 398.446l79.232 107.039c16.84 25.712-12.017 45.135-31.439 28.717-19.146-18.306-32.352-50.866-51.495-69.101 1.328 100.332-1.327 210.795 0.14 311.058-3.563 35.702-51.911 43.808-53.45 0v-99.844c-22.078 14.113-41.711 27.248-63.789 41.291-20.473 10.132-54.497-10.689-26.201-43.108l69.59-51.072c17.117-12.507 23.405-7.758 21.309-36.613-28.576-31.09-47.51-45.484-50.793-98.863 1.466-44.996 2.864-89.993 4.191-135.057 16.56-49.397 81.888-50.237 103.337 5.1l-0.632 40.453zM733.276 206.726c-24.385 0-44.297 19.843-44.297 44.296 0 24.384 19.912 44.229 44.297 44.229s44.295-19.845 44.295-44.229c0-24.453-19.91-44.296-44.295-44.296M472.035 251.791V396.49c-0.35 14.533-5.519 28.786-22.358 40.664v191.929c-6.078 32.699-44.507 28.578-44.086 0V457.557l-60.507 41.362v72.242c-14.463 26.272-37.24 23.267-45.065 0.909v-63.58c-0.069-20.332 1.957-33.469 13.345-44.925l68.192-44.507-1.467-76.855-57.223 30.184c-17.468 0-22.708-9.642-15.651-28.717l72.874-46.672 1.746-44.018c1.816-44.159 76.366-54.848 90.2-1.189M427.599 113.171c-22.079 0-39.966 17.956-39.966 39.895 0 22.08 17.887 40.035 39.966 40.035 21.938 0 39.896-17.956 39.896-40.035-0.001-21.939-17.958-39.895-39.896-39.895" fill="#040000" p-id="16139"></path><path d="M0 481.52v79.651h85.101v86.849h180.961v79.648h180.891v79.513h175.51v81.674h184.596v75.809H1024v-76.086H893.904v-77.975H709.311V732.98H530.166v-81.398H347.389v-86.848h-180.89v-83.283z" fill="#040000" p-id="16140"></path></svg>